<svg xmlns="http://www.w3.org/2000/svg" viewBox="0 0 92.22 218.72"><defs><style>.cls-1{fill:#fff;}</style></defs><g id="Capa_2" data-name="Capa 2"><g id="texto"><path class="cls-1" d="M34.45,74.79a4.19,4.19,0,0,1-3-1.25L1.22,43a4.21,4.21,0,0,1,3-7.17h26V14.11h-26a4.21,4.21,0,1,1,0-8.41H34.45a4.21,4.21,0,0,1,4.21,4.2V40a4.22,4.22,0,0,1-4.21,4.21H14.29L37.44,67.63a4.21,4.21,0,0,1-3,7.16Z"/><path class="cls-1" d="M79.56,74.28h-30a4.2,4.2,0,0,1-4.21-4.2V9.4a4.21,4.21,0,0,1,4.21-4.21h30A4.22,4.22,0,0,1,83.77,9.4V70.08A4.21,4.21,0,0,1,79.56,74.28ZM53.78,65.87H75.35V13.61H53.78Z"/><path class="cls-1" d="M34.45,153.06a4.21,4.21,0,0,1-4.21-4.2v-46.5l-7.42,11a4.2,4.2,0,0,1-7,0L.73,90.93a4.21,4.21,0,0,1,7-4.7L19.33,103.5,31,86.23a4.21,4.21,0,0,1,7.7,2.35v60.28A4.21,4.21,0,0,1,34.45,153.06Z"/><path class="cls-1" d="M84.57,88.58a4.21,4.21,0,0,0-8.42,0V131l-22-44.25a4.21,4.21,0,1,0-7.53,3.75L59.1,115.57H50.37a4.21,4.21,0,0,0,0,8.42H63.29l13.3,26.74,0,0a4.39,4.39,0,0,0,.27.47l.06.07a2.88,2.88,0,0,0,.27.34l.11.12a3.89,3.89,0,0,0,.36.34l.07,0,.35.25.13.08a4.11,4.11,0,0,0,.42.21l0,0a4.24,4.24,0,0,0,.5.18l.1,0a3,3,0,0,0,.41.09l.14,0a3.91,3.91,0,0,0,.49,0h.19l.29,0,.17,0a1.37,1.37,0,0,0,.28,0l.15,0,.3-.09.14-.05.31-.13.07,0,0,0,.23-.13.15-.09.17-.12.17-.13.13-.11.18-.17.1-.1.18-.19.09-.13.15-.19.1-.17.1-.17a1.51,1.51,0,0,0,.11-.22.61.61,0,0,0,.07-.14,2.44,2.44,0,0,0,.1-.24.5.5,0,0,1,0-.13l.06-.24c0-.06,0-.11,0-.16l0-.22a1.42,1.42,0,0,0,0-.2c0-.06,0-.12,0-.18a2.18,2.18,0,0,0,0-.25s0,0,0-.06Z"/><path class="cls-1" d="M.47,163.87a20.21,20.21,0,0,1,3.72-.31c2.07,0,3.41.37,4.35,1.22a3.75,3.75,0,0,1,1.18,2.86,3.94,3.94,0,0,1-2.83,3.83v.07c1.16.4,1.85,1.47,2.21,3a24.45,24.45,0,0,0,1.15,4.12h-2a18.62,18.62,0,0,1-1-3.59c-.45-2.07-1.25-2.85-3-2.92H2.41v6.51H.47Zm1.94,6.84h2c2.08,0,3.39-1.13,3.39-2.85,0-1.94-1.4-2.79-3.45-2.81a7.9,7.9,0,0,0-1.92.18Z"/><path class="cls-1" d="M28.74,171c0,5.18-3.15,7.92-7,7.92S15,175.86,15,171.31c0-4.77,3-7.89,7-7.89S28.74,166.57,28.74,171Zm-11.66.25c0,3.21,1.74,6.09,4.79,6.09s4.82-2.84,4.82-6.25c0-3-1.56-6.1-4.8-6.1S17.08,168,17.08,171.27Z"/><path class="cls-1" d="M47.29,172.09c-.11-2.09-.25-4.61-.22-6.48H47c-.51,1.76-1.14,3.63-1.9,5.7l-2.65,7.29H41l-2.43-7.15c-.71-2.12-1.32-4.06-1.74-5.84h0c-.05,1.87-.16,4.39-.29,6.64l-.41,6.44H34.22l1.05-15h2.48l2.56,7.27c.62,1.85,1.14,3.5,1.52,5.06h.06c.38-1.52.92-3.17,1.59-5.06l2.67-7.27h2.48l.93,15H47.67Z"/><path class="cls-1" d="M58.12,174l-1.56,4.72h-2l5.1-15H62l5.13,15H65.06L63.45,174Zm4.93-1.52-1.47-4.32c-.33-1-.56-1.88-.78-2.75h0c-.23.9-.47,1.81-.76,2.72l-1.47,4.35Zm1.07-12.19-2.83,2.6h-1.6l2.07-2.6Z"/><path class="cls-1" d="M72.71,178.69v-15h2.11l4.82,7.6a44.1,44.1,0,0,1,2.7,4.88l0,0c-.18-2-.22-3.83-.22-6.18v-6.28H84v15H82l-4.78-7.62a47.13,47.13,0,0,1-2.8-5l-.07,0c.11,1.89.15,3.7.15,6.19v6.42Z"/><path class="cls-1" d="M3.57,200.73,2,205.46H0l5.11-15H7.45l5.12,15H10.5l-1.6-4.73Zm4.92-1.51L7,194.89c-.33-1-.55-1.87-.78-2.74h0c-.23.89-.47,1.81-.76,2.72L4,199.22Z"/><path class="cls-1" d="M14.78,190.43h1.94v13.4h6.42v1.63H14.78Z"/><path class="cls-1" d="M25.31,190.63a19.42,19.42,0,0,1,3.54-.31,6.17,6.17,0,0,1,4.12,1.1,3.15,3.15,0,0,1,1.25,2.65,3.57,3.57,0,0,1-2.54,3.3v0a3.88,3.88,0,0,1,3.1,3.77,4.06,4.06,0,0,1-1.27,3c-1,1-2.74,1.4-5.19,1.4a24.65,24.65,0,0,1-3-.17Zm1.94,6.16H29c2,0,3.25-1.07,3.25-2.52,0-1.76-1.34-2.45-3.3-2.45a8.1,8.1,0,0,0-1.71.13Zm0,7.2a9.82,9.82,0,0,0,1.62.09c2,0,3.86-.74,3.86-2.92s-1.76-2.9-3.88-2.9h-1.6Z"/><path class="cls-1" d="M50.23,197.79c0,5.17-3.14,7.92-7,7.92s-6.75-3.08-6.75-7.63c0-4.77,3-7.89,7-7.89S50.23,193.33,50.23,197.79ZM38.57,198c0,3.21,1.74,6.08,4.79,6.08s4.82-2.83,4.82-6.24c0-3-1.56-6.11-4.79-6.11S38.57,194.74,38.57,198Z"/><path class="cls-1" d="M52.75,190.63a20.29,20.29,0,0,1,3.72-.31c2.08,0,3.42.38,4.35,1.23A3.73,3.73,0,0,1,62,194.4a3.94,3.94,0,0,1-2.83,3.84v.06c1.16.41,1.85,1.48,2.21,3a24.14,24.14,0,0,0,1.16,4.12h-2a19.7,19.7,0,0,1-1-3.59c-.45-2.07-1.25-2.85-3-2.92H54.69v6.51H52.75Zm1.94,6.85h2c2.07,0,3.38-1.14,3.38-2.85,0-1.94-1.4-2.79-3.45-2.81a7.9,7.9,0,0,0-1.92.18Z"/><path class="cls-1" d="M72.53,198.42H66.69v5.41H73.2v1.63H64.75v-15h8.11v1.63H66.69v4.75h5.84Z"/><path class="cls-1" d="M75.45,203.1a6.93,6.93,0,0,0,3.48,1c2,0,3.14-1.05,3.14-2.57s-.8-2.2-2.83-3c-2.45-.87-4-2.14-4-4.26,0-2.34,1.94-4.08,4.86-4.08a6.93,6.93,0,0,1,3.32.73l-.53,1.59a6,6,0,0,0-2.86-.72c-2,0-2.83,1.23-2.83,2.26,0,1.4.92,2.09,3,2.89,2.54,1,3.83,2.21,3.83,4.42s-1.71,4.32-5.26,4.32a7.68,7.68,0,0,1-3.83-1Z"/><path class="cls-1" d="M.84,213a8.2,8.2,0,0,1,1.4-.11,2.3,2.3,0,0,1,1.64.46,1.4,1.4,0,0,1,.45,1.08,1.48,1.48,0,0,1-1.07,1.44v0a1.39,1.39,0,0,1,.83,1.14,9.35,9.35,0,0,0,.44,1.56H3.77a8,8,0,0,1-.37-1.35c-.17-.79-.47-1.08-1.14-1.11H1.57v2.46H.84Zm.73,2.59h.75c.78,0,1.28-.43,1.28-1.08s-.53-1-1.31-1.06a2.67,2.67,0,0,0-.72.07Z"/><path class="cls-1" d="M15.2,216H13V218h2.45v.61H12.26V213h3.07v.61H13v1.8h2.2Z"/><path class="cls-1" d="M23.2,217.74a2.62,2.62,0,0,0,1.31.37c.75,0,1.19-.4,1.19-1s-.3-.83-1.07-1.13-1.5-.8-1.5-1.6A1.64,1.64,0,0,1,25,212.87a2.6,2.6,0,0,1,1.25.27l-.2.6a2.28,2.28,0,0,0-1.08-.27c-.77,0-1.07.46-1.07.85s.35.79,1.13,1.1c1,.37,1.45.83,1.45,1.66s-.65,1.63-2,1.63a2.93,2.93,0,0,1-1.44-.36Z"/><path class="cls-1" d="M35.08,213v3.36c0,1.27.57,1.81,1.32,1.81s1.38-.56,1.38-1.81V213h.74v3.31c0,1.74-.91,2.45-2.14,2.45s-2-.66-2-2.42V213Z"/><path class="cls-1" d="M46.69,213h.73V218h2.43v.61H46.69Z"/><path class="cls-1" d="M57.9,213.58H56.17V213h4.2v.62H58.64v5H57.9Z"/><path class="cls-1" d="M72.52,215.74c0,1.95-1.18,3-2.63,3a2.6,2.6,0,0,1-2.55-2.88,2.69,2.69,0,0,1,2.63-3A2.58,2.58,0,0,1,72.52,215.74Zm-4.4.09c0,1.21.66,2.3,1.81,2.3s1.82-1.07,1.82-2.36c0-1.13-.59-2.31-1.81-2.31S68.12,214.58,68.12,215.83Z"/><path class="cls-1" d="M80.37,213a8.24,8.24,0,0,1,1.41-.11,2.33,2.33,0,0,1,1.64.46,1.43,1.43,0,0,1,.44,1.08,1.48,1.48,0,0,1-1.07,1.44v0a1.41,1.41,0,0,1,.84,1.14,8.43,8.43,0,0,0,.44,1.56h-.76a7.63,7.63,0,0,1-.38-1.35c-.17-.79-.47-1.08-1.14-1.11H81.1v2.46h-.73Zm.73,2.59h.75c.78,0,1.28-.43,1.28-1.08s-.53-1-1.3-1.06a2.71,2.71,0,0,0-.73.07Z"/><path class="cls-1" d="M92.22,2.58A2.65,2.65,0,1,1,89.57,0,2.6,2.6,0,0,1,92.22,2.58Zm-4.64,0a2,2,0,1,0,4,0,2,2,0,1,0-4,0Zm1.59,1.35h-.6V1.35a5.76,5.76,0,0,1,1-.08,1.62,1.62,0,0,1,.9.19.73.73,0,0,1,.25.57.67.67,0,0,1-.54.6v0a.74.74,0,0,1,.47.63,2,2,0,0,0,.19.64h-.64A2.12,2.12,0,0,1,90,3.3c0-.28-.2-.41-.53-.41h-.28Zm0-1.46h.28c.33,0,.6-.11.6-.38s-.17-.39-.55-.39a1.21,1.21,0,0,0-.33,0Z"/></g></g></svg>