<svg xmlns="http://www.w3.org/2000/svg" xmlns:xlink="http://www.w3.org/1999/xlink" viewBox="0 0 176.2 441.46"><defs><style>.cls-1{fill:url(#Degradado_sin_nombre_75);}.cls-2{fill:url(#Degradado_sin_nombre_75-2);}.cls-3{fill:url(#Degradado_sin_nombre_75-3);}.cls-4{fill:url(#Degradado_sin_nombre_75-4);}.cls-5{fill:url(#Degradado_sin_nombre_75-5);}.cls-6{fill:url(#Degradado_sin_nombre_75-6);}.cls-7{fill:url(#Degradado_sin_nombre_75-7);}.cls-8{fill:url(#Degradado_sin_nombre_75-8);}.cls-9{fill:url(#Degradado_sin_nombre_75-9);}.cls-10{fill:url(#Degradado_sin_nombre_75-10);}.cls-11{fill:url(#Degradado_sin_nombre_75-11);}.cls-12{fill:url(#Degradado_sin_nombre_75-12);}.cls-13{fill:url(#Degradado_sin_nombre_75-13);}.cls-14{fill:url(#Degradado_sin_nombre_75-14);}.cls-15{fill:url(#Degradado_sin_nombre_75-15);}.cls-16{fill:url(#Degradado_sin_nombre_75-16);}.cls-17{fill:url(#Degradado_sin_nombre_75-17);}.cls-18{fill:url(#Degradado_sin_nombre_75-18);}.cls-19{fill:url(#Degradado_sin_nombre_75-19);}.cls-20{fill:url(#Degradado_sin_nombre_75-20);}.cls-21{fill:url(#Degradado_sin_nombre_75-21);}.cls-22{fill:url(#Degradado_sin_nombre_75-22);}.cls-23{fill:url(#Degradado_sin_nombre_75-23);}.cls-24{fill:url(#Degradado_sin_nombre_75-24);}.cls-25{fill:url(#Degradado_sin_nombre_75-25);}</style><linearGradient id="Degradado_sin_nombre_75" x1="-12.21" y1="330.71" x2="185.99" y2="450" gradientUnits="userSpaceOnUse"><stop offset="0" stop-color="#077cf7"/><stop offset="1" stop-color="#070bc2"/></linearGradient><linearGradient id="Degradado_sin_nombre_75-2" x1="-2.18" y1="314.04" x2="196.02" y2="433.34" xlink:href="#Degradado_sin_nombre_75"/><linearGradient id="Degradado_sin_nombre_75-3" x1="8.56" y1="296.2" x2="206.76" y2="415.49" xlink:href="#Degradado_sin_nombre_75"/><linearGradient id="Degradado_sin_nombre_75-4" x1="19.97" y1="277.25" x2="218.17" y2="396.54" xlink:href="#Degradado_sin_nombre_75"/><linearGradient id="Degradado_sin_nombre_75-5" x1="28.86" y1="262.47" x2="227.06" y2="381.76" xlink:href="#Degradado_sin_nombre_75"/><linearGradient id="Degradado_sin_nombre_75-6" x1="-36.61" y1="371.26" x2="161.58" y2="490.55" xlink:href="#Degradado_sin_nombre_75"/><linearGradient id="Degradado_sin_nombre_75-7" x1="-30" y1="360.27" x2="168.19" y2="479.56" xlink:href="#Degradado_sin_nombre_75"/><linearGradient id="Degradado_sin_nombre_75-8" x1="-23.05" y1="348.72" x2="175.15" y2="468.01" xlink:href="#Degradado_sin_nombre_75"/><linearGradient id="Degradado_sin_nombre_75-9" x1="-14.81" y1="335.03" x2="183.39" y2="454.32" xlink:href="#Degradado_sin_nombre_75"/><linearGradient id="Degradado_sin_nombre_75-10" x1="-7.91" y1="323.57" x2="190.28" y2="442.86" xlink:href="#Degradado_sin_nombre_75"/><linearGradient id="Degradado_sin_nombre_75-11" x1="-0.83" y1="311.81" x2="197.36" y2="431.1" xlink:href="#Degradado_sin_nombre_75"/><linearGradient id="Degradado_sin_nombre_75-12" x1="5" y1="302.13" x2="203.19" y2="421.42" xlink:href="#Degradado_sin_nombre_75"/><linearGradient id="Degradado_sin_nombre_75-13" x1="-53.84" y1="399.88" x2="144.35" y2="519.18" xlink:href="#Degradado_sin_nombre_75"/><linearGradient id="Degradado_sin_nombre_75-14" x1="-47.38" y1="389.15" x2="150.81" y2="508.44" xlink:href="#Degradado_sin_nombre_75"/><linearGradient id="Degradado_sin_nombre_75-15" x1="-41.39" y1="379.19" x2="156.81" y2="498.48" xlink:href="#Degradado_sin_nombre_75"/><linearGradient id="Degradado_sin_nombre_75-16" x1="-34.6" y1="367.91" x2="163.6" y2="487.2" xlink:href="#Degradado_sin_nombre_75"/><linearGradient id="Degradado_sin_nombre_75-17" x1="-29.09" y1="358.76" x2="169.1" y2="478.05" xlink:href="#Degradado_sin_nombre_75"/><linearGradient id="Degradado_sin_nombre_75-18" x1="-22.45" y1="347.73" x2="175.74" y2="467.02" xlink:href="#Degradado_sin_nombre_75"/><linearGradient id="Degradado_sin_nombre_75-19" x1="-16.51" y1="337.86" x2="181.68" y2="457.15" xlink:href="#Degradado_sin_nombre_75"/><linearGradient id="Degradado_sin_nombre_75-20" x1="-10.12" y1="327.23" x2="188.08" y2="446.53" xlink:href="#Degradado_sin_nombre_75"/><linearGradient id="Degradado_sin_nombre_75-21" x1="17.88" y1="12.13" x2="201.98" y2="237.56" xlink:href="#Degradado_sin_nombre_75"/><linearGradient id="Degradado_sin_nombre_75-22" x1="59" y1="-21.46" x2="243.11" y2="203.98" xlink:href="#Degradado_sin_nombre_75"/><linearGradient id="Degradado_sin_nombre_75-23" x1="-5.28" y1="31.04" x2="178.82" y2="256.48" xlink:href="#Degradado_sin_nombre_75"/><linearGradient id="Degradado_sin_nombre_75-24" x1="-56.14" y1="73.58" x2="152.3" y2="336.02" xlink:href="#Degradado_sin_nombre_75"/><linearGradient id="Degradado_sin_nombre_75-25" x1="-66.8" y1="82.05" x2="141.64" y2="344.49" xlink:href="#Degradado_sin_nombre_75"/></defs><g id="Capa_2" data-name="Capa 2"><g id="Capa_4" data-name="Capa 4"><path class="cls-1" d="M1.93,328.05a42.24,42.24,0,0,1,7.7-.64c4.29,0,7,.78,9,2.53a7.75,7.75,0,0,1,2.44,5.9,8.15,8.15,0,0,1-5.85,7.93v.14c2.39.83,3.82,3,4.56,6.27,1,4.33,1.75,7.33,2.4,8.53H18c-.51-.88-1.2-3.55-2.08-7.43-.92-4.28-2.58-5.89-6.22-6H5.94v13.46h-4Zm4,14.16H10c4.29,0,7-2.36,7-5.9,0-4-2.9-5.77-7.14-5.81a16.25,16.25,0,0,0-4,.37Z"/><path class="cls-2" d="M60.38,342.85c0,10.69-6.5,16.36-14.43,16.36-8.2,0-14-6.36-14-15.76,0-9.86,6.13-16.32,14.42-16.32C54.89,327.13,60.38,333.63,60.38,342.85Zm-24.11.51c0,6.63,3.6,12.58,9.91,12.58s10-5.85,10-12.91c0-6.17-3.23-12.62-9.91-12.62S36.27,336.54,36.27,343.36Z"/><path class="cls-3" d="M98.73,345.06c-.23-4.33-.51-9.54-.46-13.41h-.14c-1.06,3.64-2.35,7.51-3.92,11.8l-5.48,15.07h-3l-5-14.79c-1.47-4.38-2.72-8.39-3.59-12.08H77c-.1,3.87-.33,9.08-.6,13.74l-.83,13.32H71.72l2.17-31.07H79l5.3,15c1.29,3.82,2.35,7.23,3.14,10.46h.14c.78-3.14,1.89-6.55,3.27-10.46l5.53-15h5.12l1.93,31.07H99.51Z"/><path class="cls-4" d="M121.13,348.93l-3.22,9.78h-4.15l10.56-31.07h4.83l10.61,31.07h-4.29l-3.32-9.78Zm10.19-3.13-3-8.94c-.69-2-1.15-3.87-1.61-5.67h-.1c-.46,1.84-1,3.73-1.56,5.62l-3,9Zm2.21-25.21L127.68,326h-3.32l4.29-5.39Z"/><path class="cls-5" d="M151.28,358.71V327.64h4.38l10,15.72a87.65,87.65,0,0,1,5.57,10.09l.09-.05c-.36-4.14-.46-7.92-.46-12.76v-13h3.78v31.07h-4l-9.86-15.77a95.56,95.56,0,0,1-5.81-10.37l-.14.05c.23,3.92.32,7.65.32,12.81v13.28Z"/><path class="cls-6" d="M8.34,404.27,5.11,414H1L11.52,383h4.84L27,414H22.67l-3.31-9.77Zm10.19-3.13-3.05-8.94c-.69-2-1.15-3.87-1.61-5.67h-.09c-.46,1.84-1,3.73-1.57,5.62l-3,9Z"/><path class="cls-7" d="M31.53,383h4v27.7H48.81V414H31.53Z"/><path class="cls-8" d="M53.28,383.39a39.68,39.68,0,0,1,7.33-.64c4,0,6.59.69,8.53,2.26a6.52,6.52,0,0,1,2.58,5.48c0,3-2,5.63-5.25,6.82v.1a8,8,0,0,1,6.4,7.79,8.36,8.36,0,0,1-2.63,6.22c-2.16,2-5.66,2.9-10.73,2.9a46,46,0,0,1-6.23-.37Zm4,12.73h3.64c4.24,0,6.73-2.22,6.73-5.21,0-3.64-2.76-5.07-6.82-5.07a18.08,18.08,0,0,0-3.55.27Zm0,14.88a21.21,21.21,0,0,0,3.37.19c4.15,0,8-1.52,8-6,0-4.24-3.64-6-8-6H57.29Z"/><path class="cls-9" d="M104.82,398.19c0,10.69-6.5,16.36-14.43,16.36-8.21,0-14-6.36-14-15.76,0-9.86,6.13-16.32,14.43-16.32C99.33,382.47,104.82,389,104.82,398.19Zm-24.11.51c0,6.63,3.59,12.58,9.91,12.58s10-5.85,10-12.91c0-6.17-3.23-12.62-9.92-12.62S80.71,391.87,80.71,398.7Z"/><path class="cls-10" d="M110,383.39a42.13,42.13,0,0,1,7.69-.64c4.29,0,7.06.78,9,2.53a7.75,7.75,0,0,1,2.44,5.9,8.15,8.15,0,0,1-5.85,7.93v.14c2.4.83,3.83,3,4.56,6.27,1,4.33,1.76,7.33,2.4,8.52h-4.15c-.5-.87-1.2-3.54-2.07-7.42-.92-4.28-2.58-5.9-6.22-6H114V414h-4Zm4,14.15h4.1c4.29,0,7-2.35,7-5.9,0-4-2.91-5.76-7.15-5.8a16.08,16.08,0,0,0-4,.37Z"/><path class="cls-11" d="M150.91,399.48H138.84v11.2h13.45V414H134.83V383H151.6v3.36H138.84v9.82h12.07Z"/><path class="cls-12" d="M157,409.16a14.2,14.2,0,0,0,7.19,2c4.1,0,6.5-2.17,6.5-5.3,0-2.91-1.66-4.57-5.85-6.18-5.07-1.8-8.21-4.42-8.21-8.8,0-4.84,4-8.44,10-8.44A14.16,14.16,0,0,1,173.5,384l-1.11,3.28a12.27,12.27,0,0,0-5.9-1.48c-4.24,0-5.85,2.54-5.85,4.66,0,2.9,1.89,4.33,6.18,6,5.25,2,7.92,4.56,7.92,9.12,0,4.8-3.55,8.95-10.87,8.95a16,16,0,0,1-7.93-2Z"/><path class="cls-13" d="M2.7,429.7a16.31,16.31,0,0,1,2.9-.24,4.79,4.79,0,0,1,3.39,1,2.89,2.89,0,0,1,.93,2.22,3.1,3.1,0,0,1-2.21,3v.05a2.93,2.93,0,0,1,1.72,2.36,17.53,17.53,0,0,0,.91,3.22H8.77a15.35,15.35,0,0,1-.78-2.8c-.35-1.62-1-2.23-2.35-2.28H4.21v5.08H2.7ZM4.21,435H5.76c1.62,0,2.64-.88,2.64-2.22,0-1.52-1.09-2.18-2.69-2.19a7,7,0,0,0-1.5.13Z"/><path class="cls-14" d="M32.39,435.78H27.83V440h5.08v1.27H26.32V429.55h6.33v1.27H27.83v3.7h4.56Z"/><path class="cls-15" d="M48.93,439.43a5.35,5.35,0,0,0,2.72.76c1.55,0,2.45-.81,2.45-2s-.63-1.72-2.21-2.33c-1.91-.68-3.1-1.67-3.1-3.32,0-1.83,1.52-3.19,3.8-3.19a5.26,5.26,0,0,1,2.59.58l-.42,1.23a4.76,4.76,0,0,0-2.23-.55c-1.6,0-2.21.95-2.21,1.76,0,1.09.72,1.63,2.33,2.26,2,.76,3,1.72,3,3.44s-1.34,3.38-4.11,3.38a6,6,0,0,1-3-.75Z"/><path class="cls-16" d="M73.49,429.55v6.94c0,2.63,1.17,3.74,2.74,3.74,1.74,0,2.85-1.15,2.85-3.74v-6.94h1.53v6.83c0,3.61-1.9,5.08-4.44,5.08s-4.21-1.37-4.21-5v-6.9Z"/><path class="cls-17" d="M97.5,429.55H99V440h5v1.27H97.5Z"/><path class="cls-18" d="M120.67,430.83H117.1v-1.28h8.68v1.28H122.2v10.44h-1.53Z"/><path class="cls-19" d="M150.9,435.29c0,4-2.45,6.17-5.45,6.17s-5.27-2.4-5.27-5.95c0-3.72,2.32-6.16,5.45-6.16S150.9,431.81,150.9,435.29Zm-9.1.19c0,2.5,1.36,4.75,3.74,4.75s3.76-2.21,3.76-4.87c0-2.33-1.22-4.77-3.74-4.77S141.8,432.9,141.8,435.48Z"/><path class="cls-20" d="M167.13,429.7a16.31,16.31,0,0,1,2.9-.24,4.82,4.82,0,0,1,3.4,1,2.91,2.91,0,0,1,.92,2.22,3.1,3.1,0,0,1-2.21,3v.05a2.93,2.93,0,0,1,1.72,2.36,17.53,17.53,0,0,0,.91,3.22H173.2a15.35,15.35,0,0,1-.78-2.8c-.35-1.62-1-2.23-2.35-2.28h-1.43v5.08h-1.51Zm1.51,5.34h1.55c1.62,0,2.64-.88,2.64-2.22,0-1.52-1.09-2.18-2.69-2.19a7,7,0,0,0-1.5.13Z"/></g><g id="Capa_5" data-name="Capa 5"><path class="cls-21" d="M72.58,1H10.08a8.7,8.7,0,0,0,0,17.4h53.8V63.25H10.08A8.7,8.7,0,0,0,3.89,78.06L66.4,141.31a8.7,8.7,0,0,0,12.37-12.23L30.9,80.64H72.58a8.7,8.7,0,0,0,8.7-8.7V9.74A8.71,8.71,0,0,0,72.58,1Z"/><path class="cls-22" d="M103.85,142.85h62a8.71,8.71,0,0,0,8.7-8.7V8.7a8.7,8.7,0,0,0-8.7-8.7h-62a8.69,8.69,0,0,0-8.69,8.7V134.15A8.7,8.7,0,0,0,103.85,142.85Zm8.7-125.46h44.6V125.45h-44.6Z"/><path class="cls-23" d="M176.2,172.41a8.7,8.7,0,1,0-17.4,0V260l-45.51-91.48a8.7,8.7,0,1,0-15.57,7.75l25.83,51.93h-18a8.7,8.7,0,1,0,0,17.39h26.7l27.5,55.3,0,.07a8.5,8.5,0,0,0,.57,1l.12.16c.17.24.36.47.55.69l.23.25a8.28,8.28,0,0,0,.75.7l.15.12c.24.18.48.35.73.51l.25.15a7.16,7.16,0,0,0,.87.45l.07,0a9.67,9.67,0,0,0,1,.36l.21.06a8.52,8.52,0,0,0,.85.17l.29,0c.33,0,.66.06,1,.07h.08l.33,0c.19,0,.39,0,.58,0l.36-.06a3.91,3.91,0,0,0,.58-.1l.32-.08a6.32,6.32,0,0,0,.62-.18l.28-.1.64-.28.15-.06.11-.06c.16-.08.31-.17.46-.26l.31-.19.36-.25.35-.26.27-.23.37-.34.21-.23c.12-.13.25-.25.36-.39s.13-.17.2-.26l.3-.4c.08-.11.15-.23.22-.35l.21-.34.23-.45c0-.1.09-.19.13-.29a5.38,5.38,0,0,0,.2-.51c0-.09.07-.18.1-.27a4.67,4.67,0,0,0,.14-.5l.09-.33c0-.15,0-.29.08-.44s.05-.28.06-.43a2.19,2.19,0,0,0,0-.36,4.71,4.71,0,0,0,0-.53s0-.08,0-.12Z"/><path class="cls-24" d="M74.15,163.39a8.75,8.75,0,0,0-9.81,3.48l-18.19,27a8.74,8.74,0,1,0,14.5,9.77l2.2-3.24v96.66a8.75,8.75,0,1,0,17.49,0V171.75A8.75,8.75,0,0,0,74.15,163.39Z"/><path class="cls-25" d="M16.21,167.2a8.74,8.74,0,0,0-14.93,9.11L29.74,223a8.74,8.74,0,1,0,14.93-9.11Z"/></g></g></svg>