<svg xmlns="http://www.w3.org/2000/svg" xmlns:xlink="http://www.w3.org/1999/xlink" viewBox="0 0 176.2 305.8"><defs><style>.cls-1{fill:url(#Degradado_sin_nombre_75);}.cls-2{fill:url(#Degradado_sin_nombre_75-2);}.cls-3{fill:url(#Degradado_sin_nombre_75-3);}.cls-4{fill:url(#Degradado_sin_nombre_75-4);}.cls-5{fill:url(#Degradado_sin_nombre_75-5);}</style><linearGradient id="Degradado_sin_nombre_75" x1="17.88" y1="12.13" x2="201.98" y2="237.56" gradientUnits="userSpaceOnUse"><stop offset="0" stop-color="#077cf7"/><stop offset="1" stop-color="#070bc2"/></linearGradient><linearGradient id="Degradado_sin_nombre_75-2" x1="59" y1="-21.46" x2="243.11" y2="203.98" xlink:href="#Degradado_sin_nombre_75"/><linearGradient id="Degradado_sin_nombre_75-3" x1="-5.28" y1="31.04" x2="178.82" y2="256.48" xlink:href="#Degradado_sin_nombre_75"/><linearGradient id="Degradado_sin_nombre_75-4" x1="-56.14" y1="73.58" x2="152.3" y2="336.02" xlink:href="#Degradado_sin_nombre_75"/><linearGradient id="Degradado_sin_nombre_75-5" x1="-66.8" y1="82.05" x2="141.64" y2="344.49" xlink:href="#Degradado_sin_nombre_75"/></defs><g id="Capa_2" data-name="Capa 2"><g id="Capa_5" data-name="Capa 5"><path class="cls-1" d="M72.58,1H10.08a8.7,8.7,0,0,0,0,17.4h53.8V63.25H10.08A8.7,8.7,0,0,0,3.89,78.06L66.4,141.31a8.7,8.7,0,0,0,12.37-12.23L30.9,80.64H72.58a8.7,8.7,0,0,0,8.7-8.7V9.74A8.71,8.71,0,0,0,72.58,1Z"/><path class="cls-2" d="M103.85,142.85h62a8.71,8.71,0,0,0,8.7-8.7V8.7a8.7,8.7,0,0,0-8.7-8.7h-62a8.69,8.69,0,0,0-8.69,8.7V134.15A8.7,8.7,0,0,0,103.85,142.85Zm8.7-125.46h44.6V125.45h-44.6Z"/><path class="cls-3" d="M176.2,172.41a8.7,8.7,0,1,0-17.4,0V260l-45.51-91.48a8.7,8.7,0,1,0-15.57,7.75l25.83,51.93h-18a8.7,8.7,0,1,0,0,17.39h26.7l27.5,55.3,0,.07a8.5,8.5,0,0,0,.57,1l.12.16c.17.24.36.47.55.69l.23.25a8.28,8.28,0,0,0,.75.7l.15.12c.24.18.48.35.73.51l.25.15a7.16,7.16,0,0,0,.87.45l.07,0a9.67,9.67,0,0,0,1,.36l.21.06a8.52,8.52,0,0,0,.85.17l.29,0c.33,0,.66.06,1,.07h.08l.33,0c.19,0,.39,0,.58,0l.36-.06a3.91,3.91,0,0,0,.58-.1l.32-.08a6.32,6.32,0,0,0,.62-.18l.28-.1.64-.28.15-.06.11-.06c.16-.08.31-.17.46-.26l.31-.19.36-.25.35-.26.27-.23.37-.34.21-.23c.12-.13.25-.25.36-.39s.13-.17.2-.26l.3-.4c.08-.11.15-.23.22-.35l.21-.34.23-.45c0-.1.09-.19.13-.29a5.38,5.38,0,0,0,.2-.51c0-.09.07-.18.1-.27a4.67,4.67,0,0,0,.14-.5l.09-.33c0-.15,0-.29.08-.44s.05-.28.06-.43a2.19,2.19,0,0,0,0-.36,4.71,4.71,0,0,0,0-.53s0-.08,0-.12Z"/><path class="cls-4" d="M74.15,163.39a8.75,8.75,0,0,0-9.81,3.48l-18.19,27a8.74,8.74,0,1,0,14.5,9.77l2.2-3.24v96.66a8.75,8.75,0,1,0,17.49,0V171.75A8.75,8.75,0,0,0,74.15,163.39Z"/><path class="cls-5" d="M16.21,167.2a8.74,8.74,0,0,0-14.93,9.11L29.74,223a8.74,8.74,0,1,0,14.93-9.11Z"/></g></g></svg>