<?xml version="1.0" ?><!DOCTYPE svg  PUBLIC '-//W3C//DTD SVG 1.1//EN'  'http://www.w3.org/Graphics/SVG/1.1/DTD/svg11.dtd'><svg height="100%" style="fill-rule:evenodd;clip-rule:evenodd;stroke-linejoin:round;stroke-miterlimit:2;" version="1.1" viewBox="0 0 512 512" width="100%" xml:space="preserve" xmlns="http://www.w3.org/2000/svg" xmlns:serif="http://www.serif.com/" xmlns:xlink="http://www.w3.org/1999/xlink"><path d="M506.592,280.078c-1.587,-1.148 -2.846,-1.312 -3.885,0.876c-17.837,38.573 -47.875,19.314 -44.865,21.01c6.675,-3.063 24.184,-17.071 21.557,-36.494c-1.586,-11.872 -11.764,-17.125 -22.597,-15.209c-18.876,3.282 -25.77,23.635 -22.268,41.636c0.601,3.119 1.696,5.635 2.845,8.152c-21.284,17.344 -29.764,-15.484 -30.749,-19.423c-0.054,-0.219 16.469,-13.952 21.065,-46.725c4.815,-34.306 -6.128,-40.598 -17.344,-40.379c-20.736,0.383 -26.318,43.662 -18.822,79.718c-0.602,0.164 -3.557,1.805 -8.261,1.97c-3.393,-10.669 -17.892,-20.026 -21.667,-16.415c-9.466,9.028 2.297,26.646 10.615,28.013c-4.98,30.695 -36.167,23.09 -30.367,-15.373c10.122,-18.823 17.891,-46.891 16.469,-63.797c-0.493,-5.964 -4.925,-14.006 -14.937,-13.623c-19.259,0.765 -21.338,44.044 -19.095,74.793c-0.109,-0.766 -1.203,3.72 -9.083,5.964c-1.86,-10.341 -18.547,-20.791 -22.486,-15.758c-7.332,9.356 5.416,26.044 11.434,27.193c-4.978,30.695 -36.165,23.089 -30.366,-15.374c10.178,-18.822 17.892,-46.835 16.524,-63.741c-0.492,-5.965 -4.924,-14.008 -14.937,-13.624c-19.259,0.766 -21.338,44.043 -19.094,74.793c-0.11,-0.767 -1.205,3.884 -9.412,6.073c-0.273,-13.459 -17.015,-19.588 -21.064,-15.32c-7.168,7.66 1.641,23.362 9.793,27.193c-4.978,30.695 -36.165,23.089 -30.366,-15.374c10.123,-18.822 17.892,-46.89 16.47,-63.796c-0.438,-5.91 -4.87,-13.953 -14.884,-13.569c-19.259,0.766 -20.79,46.232 -18.547,76.981c-6.347,27.194 -27.63,61.116 -24.84,-6.894c0.274,-4.76 0.548,-6.565 -1.805,-8.371c-1.805,-1.367 -5.855,-0.71 -8.044,-0.657c-2.68,0.11 -3.391,1.697 -3.939,4.05c-1.367,6.128 -1.641,12.091 -1.86,20.243c-0.109,3.83 -0.438,5.582 -1.915,10.779c-1.477,5.198 -9.793,14.663 -14.389,13.077c-6.347,-2.189 -4.268,-20.081 -3.065,-32.391c0.986,-9.738 -2.188,-14.061 -10.285,-15.648c-4.761,-0.984 -7.661,-0.82 -12.584,-2.408c-4.706,-1.477 -5.746,-10.34 -15.703,-7.385c-5.471,1.641 -1.97,13.186 -3.284,21.776c-6.455,42.183 -19.86,43.333 -26.097,22.869c28.013,-68.72 8.042,-95.803 -3.612,-95.803c-12.146,0 -26.044,8.372 -20.189,61.991c-2.845,-0.821 -3.721,-1.258 -6.894,-1.258c-17.673,-0.055 -29.764,14.28 -29.764,31.952c0,17.672 12.091,32.008 29.819,32.008c10.45,0 17.782,-4.761 23.362,-12.093c3.611,5.199 8.043,12.202 16.14,11.874c24.075,-0.931 31.078,-50.337 31.899,-53.127c2.572,0.382 5.033,1.149 7.386,1.532c3.939,0.602 4.268,2.188 4.158,6.128c-1.039,33.593 5.144,45.357 19.206,45.357c7.823,0 14.827,-7.715 19.641,-13.186c3.612,7.442 9.301,12.967 17.016,13.186c18.603,0.438 25.77,-29.216 25.114,-25.332c-0.493,3.064 6.018,25.113 25.223,25.223c23.745,0.109 28.177,-25.989 28.67,-30.366c0.108,-0.767 0.055,-0.875 0,0l0,0.273c7.55,-1.422 11.434,-5.417 11.434,-5.417c0,0 6.073,35.948 28.452,35.565c23.253,-0.438 27.684,-24.02 28.232,-28.616c0.109,-0.984 0.055,-1.094 0,0l0,0.109c8.973,-3.282 11.326,-6.51 11.326,-6.51c0,0 4.814,35.236 28.45,35.564c21.066,0.274 28.889,-21.338 28.944,-30.366c3.556,0.054 10.122,-2.134 9.958,-2.243c0,0 7.715,30.804 29.272,32.39c10.122,0.765 17.726,-5.691 22.05,-8.645c10.176,8.262 44.044,18.767 65.437,-17.508c3.064,-5.144 -3.447,-11.326 -4.596,-12.093Zm-477.65,26.318c-10.341,0 -16.961,-9.574 -16.961,-19.86c0,-10.287 6.073,-19.862 16.415,-19.862c4.649,0 7.221,0.493 10.888,3.666c0.656,2.572 2.516,8.535 3.446,11.271c1.203,3.611 2.681,6.73 4.104,10.067c-2.134,8.645 -8.919,14.718 -17.892,14.718Zm25.169,-35.782c-0.438,-0.712 -0.328,-0.274 -0.821,-0.931c-1.86,-5.142 -5.526,-16.633 -5.964,-29.709c-0.492,-14.773 1.97,-32.117 9.246,-32.117c4.925,0 10.178,35.126 -2.461,62.757Zm145.592,-15.375c-1.149,-8.754 -1.204,-47.875 8.153,-46.78c5.198,2.079 -3.283,38.956 -8.153,46.78Zm68.556,0c-1.148,-8.754 -1.203,-47.875 8.153,-46.78c5.198,2.079 -3.283,38.956 -8.153,46.78Zm68.009,0.547c-1.149,-8.754 -1.203,-47.874 8.153,-46.78c5.197,2.025 -3.283,38.957 -8.153,46.78Zm75.067,-49.68c8.59,-0.876 8.208,36.604 -8.972,60.24c-2.244,-8.535 -5.636,-57.285 8.972,-60.24Zm36.112,80.702c-2.736,-13.951 4.377,-23.089 11.708,-24.073c2.572,-0.383 6.292,1.258 7.003,4.377c1.205,5.854 -0.164,14.554 -16.632,25.551c0.055,0.055 -1.478,-2.79 -2.079,-5.855Zm-291.022,-43.005c5.854,0 10.614,-4.759 10.614,-10.614c0,-5.854 -4.76,-10.614 -10.614,-10.614c-5.854,0 -10.615,4.76 -10.615,10.614c0,5.855 4.761,10.614 10.615,10.614Z" style="fill:#ea4d89;"/></svg>