<?xml version="1.0" ?><!DOCTYPE svg  PUBLIC '-//W3C//DTD SVG 1.1//EN'  'http://www.w3.org/Graphics/SVG/1.1/DTD/svg11.dtd'><svg height="100%" style="fill-rule:evenodd;clip-rule:evenodd;stroke-linejoin:round;stroke-miterlimit:2;" version="1.1" viewBox="0 0 512 512" width="100%" xml:space="preserve" xmlns="http://www.w3.org/2000/svg" xmlns:serif="http://www.serif.com/" xmlns:xlink="http://www.w3.org/1999/xlink"><g><path d="M143.353,356.876c6.823,0 13.318,-0.606 19.426,-1.975c6.205,-1.345 11.695,-3.502 16.348,-6.678c4.63,-3.053 8.483,-7.247 11.271,-12.555c2.799,-5.283 4.144,-12.142 4.144,-20.42c0,-16.227 -4.581,-27.764 -13.657,-34.756c-9.114,-6.908 -21.245,-10.337 -36.163,-10.337l-75.39,0l0,86.721l74.021,0Zm-3.842,-134.057c12.276,0 22.456,-2.909 30.515,-8.822c7.974,-5.83 11.828,-15.44 11.828,-28.649c0,-7.32 -1.272,-13.379 -3.854,-18.081c-2.678,-4.702 -6.229,-8.374 -10.688,-10.956c-4.436,-2.678 -9.453,-4.52 -15.258,-5.526c-5.72,-1.115 -11.694,-1.551 -17.839,-1.551l-64.883,0l0,73.585l70.179,0Zm8.968,-127.235c15.064,0 28.661,1.297 41.083,4c12.361,2.617 22.892,6.992 31.811,12.991c8.774,5.999 15.645,13.973 20.566,24.019c4.787,9.901 7.198,22.299 7.198,36.95c0,15.851 -3.587,29.097 -10.798,39.689c-7.247,10.568 -17.899,19.232 -32.114,25.97c19.353,5.575 33.726,15.379 43.239,29.328c9.562,14.045 14.252,30.842 14.252,50.547c0,15.972 -3.054,29.715 -9.174,41.288c-6.168,11.707 -14.567,21.196 -24.916,28.516c-10.434,7.38 -22.395,12.809 -35.823,16.336c-13.27,3.514 -27.049,5.296 -41.179,5.296l-152.624,0l0,-314.93l148.479,0Z" style="fill:#030404;fill-rule:nonzero;"/><path d="M434.517,236.016c-7.453,-8.228 -20.044,-12.688 -35.423,-12.688c-10.01,0 -18.287,1.684 -24.928,5.114c-6.496,3.393 -11.804,7.598 -15.863,12.567c-4.048,5.042 -6.787,10.374 -8.399,16.07c-1.599,5.55 -2.569,10.579 -2.848,15.027l101.895,0c-1.491,-15.973 -6.956,-27.788 -14.434,-36.09Zm-71.973,119.818c9.392,9.162 22.953,13.767 40.525,13.767c12.628,0 23.535,-3.187 32.697,-9.562c9.076,-6.362 14.603,-13.161 16.735,-20.214l55.165,0c-8.871,27.449 -22.311,47.045 -40.671,58.849c-18.141,11.84 -40.246,17.742 -66.022,17.742c-17.96,0 -34.127,-2.909 -48.645,-8.629c-14.506,-5.805 -26.625,-13.924 -36.829,-24.528c-9.937,-10.641 -17.657,-23.22 -23.159,-37.992c-5.441,-14.7 -8.18,-30.976 -8.18,-48.609c0,-17.051 2.848,-32.975 8.423,-47.699c5.671,-14.773 13.549,-27.522 23.886,-38.21c10.361,-10.75 22.638,-19.233 36.938,-25.438c14.312,-6.168 30.09,-9.27 47.566,-9.27c19.293,0 36.174,3.708 50.668,11.27c14.421,7.465 26.261,17.572 35.556,30.224c9.283,12.628 15.912,27.073 20.045,43.276c4.096,16.179 5.538,33.072 4.362,50.765l-164.548,0c0,18.033 6.084,35.096 15.488,44.258Z" style="fill:#030404;fill-rule:nonzero;"/><rect height="31.072" style="fill:#030404;" width="127.659" x="334.235" y="116.72"/></g></svg>