<?xml version="1.0" ?><!DOCTYPE svg  PUBLIC '-//W3C//DTD SVG 1.1//EN'  'http://www.w3.org/Graphics/SVG/1.1/DTD/svg11.dtd'><svg height="100%" style="fill-rule:evenodd;clip-rule:evenodd;stroke-linejoin:round;stroke-miterlimit:2;" version="1.1" viewBox="0 0 300 300" width="100%" xml:space="preserve" xmlns="http://www.w3.org/2000/svg" xmlns:serif="http://www.serif.com/" xmlns:xlink="http://www.w3.org/1999/xlink"><g transform="matrix(1,0,0,1,0,110)"><path d="M45,40.2C45,52.7 34.9,62.8 22.5,62.8C10.1,62.8 0,52.8 0,40.2C0,27.6 10.1,17.6 22.5,17.6C34.9,17.6 45,27.7 45,40.2" style="fill-rule:nonzero;"/><path d="M69.7,40.2C69.7,52 64.7,61.5 58.5,61.5C52.3,61.5 47.3,52 47.3,40.2C47.3,28.4 52.3,18.9 58.5,18.9C64.6,18.9 69.7,28.5 69.7,40.2" style="fill-rule:nonzero;"/><path d="M79.7,40.2C79.7,50.7 77.9,59.3 75.7,59.3C73.5,59.3 71.7,50.7 71.7,40.2C71.7,29.7 73.5,21.1 75.7,21.1C78,21.1 79.7,29.7 79.7,40.2" style="fill-rule:nonzero;"/><path d="M141.8,19.6L141.9,19.1L129.1,19.1L117.2,47L105.3,19.1L91.5,19.1L91.5,19.6L91.6,19.6C93.9,20.1 95.1,20.9 95.1,23.7L95.1,56.9C95.1,59.7 93.9,60.5 91.6,61L91.5,61L91.5,61.5L100.9,61.5L100.9,61L100.8,61C98.5,60.5 97.3,59.7 97.3,56.9L97.3,25.6L112.6,61.5L113.5,61.5L129.2,24.6L129.2,57.7C129,59.9 127.8,60.6 125.7,61.1L125.6,61.1L125.6,61.6L141.9,61.6L141.9,61.1L141.8,61.1C139.7,60.6 138.5,59.9 138.3,57.7L138.3,23.7C138.3,20.9 139.5,20.1 141.8,19.6M149.3,41.5C149.6,35.5 151.7,31.2 155.3,31.2C156.4,31.2 157.3,31.6 158.1,32.3C159.6,33.8 160.4,36.9 160.2,41.6L149.3,41.6L149.3,41.5ZM149.1,43.2L168.2,43.2L168.2,43.1C168.1,38.5 166.8,35 164.3,32.6C162.1,30.5 158.8,29.3 155.4,29.3L155.3,29.3C153.5,29.3 151.3,29.7 149.8,30.5C148,31.3 146.5,32.5 145.2,34.1C143.1,36.7 141.9,40.2 141.5,44.1L141.5,46.4C141.7,55.3 146.5,62.4 155,62.4C162.5,62.4 166.8,56.9 167.9,49.6L167.4,49.4C165.5,53.3 162.1,55.7 158.2,55.4C152.8,55.2 148.7,49.8 149.1,43.2M189.8,55.3C189.2,56.8 187.9,57.6 186.1,57.6C184.3,57.6 182.7,56.4 181.6,54.2C180.4,51.9 179.7,48.5 179.7,44.6C179.7,36.4 182.2,31.1 186.2,31.1C187.8,31.1 189.1,31.9 189.8,33.3L189.8,55.3ZM202.4,61.1C200.1,60.5 198.9,59.7 198.9,56.7L198.9,17.1L184.7,21.3L184.7,21.8L184.8,21.8C186.8,21.6 188.1,21.9 188.9,22.6C189.5,23.2 189.8,24 189.8,25.2L189.8,30.6C188.4,29.7 186.7,29.3 184.7,29.3C180.6,29.3 176.9,31 174.2,34.2C171.4,37.5 169.9,41.9 169.9,47.1C169.9,56.3 174.4,62.5 181.2,62.5C185.2,62.5 188.3,60.3 189.8,56.7L189.8,61.6L202.5,61.6L202.4,61.1ZM214.6,22.5C214.6,19.6 212.4,17.4 209.5,17.4C206.6,17.4 204.4,19.6 204.4,22.5C204.4,25.4 206.6,27.6 209.5,27.6C212.4,27.6 214.6,25.4 214.6,22.5M217.9,61.1C215.6,60.5 214.4,59.7 214.4,56.7L214.4,29.4L201.7,33.1L201.7,33.6L201.8,33.6C204.6,33.8 205.3,34.8 205.3,38L205.3,61.6L218,61.6L217.9,61.1ZM250.6,61.1C248.3,60.5 247.1,59.7 247.1,56.7L247.1,29.4L234.9,33L234.9,33.5L235,33.5C237.3,33.7 237.9,34.7 237.9,38L237.9,55.3C237.1,56.8 235.7,57.7 234,57.7C231.2,57.7 229.7,55.8 229.7,52.4L229.7,29.4L217,33.1L217,33.6L217.1,33.6C219.9,33.8 220.6,34.8 220.6,38L220.6,52.6C220.6,53.6 220.7,54.6 220.9,55.6L221.1,56.6C222.2,60.5 225,62.5 229.4,62.5C233.1,62.5 236.4,60.2 237.9,56.6L237.9,61.6L250.6,61.6L250.6,61.1ZM300,61.6L300,61.1L299.9,61.1C297.4,60.5 296.4,59.4 296.4,57.2L296.4,38.6C296.4,32.8 293.1,29.4 287.7,29.4C283.7,29.4 280.4,31.7 279.1,35.3C278.1,31.5 275.1,29.4 270.8,29.4C267,29.4 264,31.4 262.7,34.8L262.7,29.5L250,33L250,33.5L250.1,33.5C252.8,33.7 253.6,34.7 253.6,37.9L253.6,61.7L265.5,61.7L265.5,61.2L265.4,61.2C263.4,60.7 262.7,59.9 262.7,57.6L262.7,36.2C263.2,35 264.3,33.5 266.4,33.5C269,33.5 270.4,35.3 270.4,38.9L270.4,61.6L282.3,61.6L282.3,61.1L282.2,61.1C280.2,60.6 279.5,59.8 279.5,57.5L279.5,38.6C279.5,37.9 279.4,37.2 279.3,36.5C279.9,35.1 281,33.5 283.2,33.5C285.9,33.5 287.2,35.3 287.2,38.9L287.2,61.6L300,61.6Z" style="fill-rule:nonzero;"/></g></svg>