<svg xmlns="http://www.w3.org/2000/svg" viewBox="0 0 96.45 14.62"><defs><style>.cls-1{fill:#fff;}</style></defs><g id="Capa_2" data-name="Capa 2"><g id="_1era_seccion" data-name="1era seccion"><path class="cls-1" d="M14.39,7.38A7.2,7.2,0,1,1,0,7.35a7.2,7.2,0,1,1,14.39,0Z"/><path class="cls-1" d="M45.66,14.15H40.49l0-.09a3.08,3.08,0,0,1,.38-.16,1,1,0,0,0,.76-1c0-3.44,0-6.89-.06-10.36-.06.13-.13.25-.18.38q-2.31,5.43-4.63,10.86a2.12,2.12,0,0,1-.32.42,1.85,1.85,0,0,1-.29-.4Q33.88,8.52,31.65,3.26a.89.89,0,0,0-.25-.39v9.75A1.16,1.16,0,0,0,32.32,14a.33.33,0,0,1,.2.2H29.59l0-.09.32-.14a1.13,1.13,0,0,0,.82-1.14c0-3.62,0-7.25,0-10.87A1.1,1.1,0,0,0,29.91.81a.63.63,0,0,1-.33-.24l.35,0c1.23,0,2.46,0,3.68,0a.46.46,0,0,1,.51.35l3.4,8,.25.56c.1-.21.17-.35.23-.49,1.14-2.68,2.29-5.36,3.42-8A.5.5,0,0,1,42,.53c1.09,0,2.18,0,3.27,0a.78.78,0,0,1,.42.1,2,2,0,0,1-.25.14A1.11,1.11,0,0,0,44.54,2V12.45c0,.12,0,.25,0,.37a1.1,1.1,0,0,0,.8,1.1l.33.13Z"/><path class="cls-1" d="M96.45,14.15H92.32c0-.14,0-.3,0-.46q0-3.33,0-6.66a3.67,3.67,0,0,0-.14-1.09,1.11,1.11,0,0,0-1.41-.72,1.18,1.18,0,0,0-.93,1.21c0,2.07,0,4.14,0,6.22,0,.63.08,1.17.81,1.36,0,0,0,.06.1.14H86.9c0-.14,0-.29,0-.45,0-2.22,0-4.44,0-6.66a4,4,0,0,0-.1-1,1.14,1.14,0,0,0-1.37-.86,1.29,1.29,0,0,0-1,1.21c0,2,0,3.92,0,5.88,0,.74-.14,1.54.93,1.76l-.08.09H81.48v-.46q0-3.48,0-7a4.15,4.15,0,0,0,0-.61.88.88,0,0,0-.79-.85l-.31-.09,0-.13L84.4,3.87V5.34a2.93,2.93,0,0,1,2.78-1.5A2.51,2.51,0,0,1,89.67,5.6a7.18,7.18,0,0,1,.63-.87,3.11,3.11,0,0,1,3.44-.64A2.64,2.64,0,0,1,95.2,6.72c0,2,0,3.89,0,5.84,0,.87.14,1.07,1,1.4C96.23,14,96.29,14.05,96.45,14.15Z"/><path class="cls-1" d="M22.48,7.37a10.83,10.83,0,0,1-1.14,4.83,6.27,6.27,0,0,1-1.16,1.46,2.06,2.06,0,0,1-2.82-.05A5.08,5.08,0,0,1,16,11.52a11.28,11.28,0,0,1,.29-8.9,5.48,5.48,0,0,1,1.08-1.46,2.1,2.1,0,0,1,3,0,6.38,6.38,0,0,1,1.81,3.58C22.31,5.61,22.37,6.5,22.48,7.37Z"/><path class="cls-1" d="M61,4.22c0-.67,0-1.28,0-1.89s-.33-.72-.84-.79c-.24,0-.48,0-.71-.06l0-.14L64,0V.52c0,3.93,0,7.85,0,11.78,0,.81.11,1.5,1.06,1.71,0,0,0,.06.1.13a1.66,1.66,0,0,1-.28,0H61.38c-.27,0-.37-.08-.35-.35s0-.65,0-1.06a1.46,1.46,0,0,0-.17.22,3.08,3.08,0,0,1-5.21.08A6.56,6.56,0,0,1,55,7.36a4.56,4.56,0,0,1,3.49-3.42A3.66,3.66,0,0,1,61,4.22Zm0,4.43V5.46a1,1,0,0,0-.85-1,1.54,1.54,0,0,0-1.74,1.07,9.87,9.87,0,0,0-.56,2.28,7,7,0,0,0,.52,3.91,2.68,2.68,0,0,0,.66.87,1.25,1.25,0,0,0,1.42.17A1,1,0,0,0,61,11.67C61,10.67,61,9.66,61,8.65Z"/><path class="cls-1" d="M69.78,5l4.08-1.18v.49c0,2.26,0,4.53,0,6.79A4.08,4.08,0,0,0,74,12a1.14,1.14,0,0,0,1,1,1.43,1.43,0,0,0,1.43-.69,1.22,1.22,0,0,0,.07-.47c0-1.64,0-3.27,0-4.91,0-.75.09-1.56-1-1.73L75.51,5l3.9-1.18v.53c0,2.67,0,5.34,0,8,0,.79.17,1.4,1,1.59,0,0,.07,0,.21.14H76.48V12.75c-.14.2-.2.31-.28.42a3,3,0,0,1-4.37.63A2.76,2.76,0,0,1,71,11.55c0-1.58,0-3.16,0-4.74a4.86,4.86,0,0,0,0-.66.87.87,0,0,0-.79-.89l-.33-.09Z"/><path class="cls-1" d="M54,10.24a1.53,1.53,0,0,1,0,.32,5,5,0,0,1-1.46,2.95A4,4,0,0,1,46.73,13a6.49,6.49,0,0,1-.64-6.45,4.23,4.23,0,0,1,5.73-2.3,3.84,3.84,0,0,1,2.24,3.15c0,.22,0,.46.07.69,0,.06,0,.13,0,.25h-6a3.53,3.53,0,0,0,1.53,3.47C51.54,12.87,52.87,12,54,10.24ZM51.57,7.72a4.78,4.78,0,0,0-.42-2.61A1.28,1.28,0,0,0,49,4.88a4.62,4.62,0,0,0-1,2.84Z"/><path class="cls-1" d="M70.09,14.15H66V6.7a4.63,4.63,0,0,0,0-.65.86.86,0,0,0-.76-.79,3.37,3.37,0,0,1-.34-.09V5L69,3.86v.49c0,2.67,0,5.34,0,8,0,.8.14,1.44,1,1.64a.08.08,0,0,1,.06,0S70.07,14.09,70.09,14.15Z"/><path class="cls-1" d="M23.14,7.14c.14-1.27.29-2.73.49-4.18A4.07,4.07,0,0,1,24,1.79c.09-.21.32-.49.5-.49s.42.27.51.48A4.66,4.66,0,0,1,25.38,3a24.16,24.16,0,0,1,0,8.93,3.62,3.62,0,0,1-.3.93,3.33,3.33,0,0,1-.56.63c-.19-.2-.45-.37-.53-.61a10,10,0,0,1-.48-1.94C23.33,9.74,23.26,8.54,23.14,7.14Z"/><path class="cls-1" d="M65.74,1.71a1.64,1.64,0,0,1,3.27,0,1.64,1.64,0,0,1-3.27,0Z"/></g></g></svg>