<svg xmlns="http://www.w3.org/2000/svg" viewBox="0 0 30.72 30.79"><defs><style>.cls-1{fill:#1fd560;}</style></defs><g id="Capa_2" data-name="Capa 2"><g id="_1era_seccion" data-name="1era seccion"><path class="cls-1" d="M30.72,15.43A15.36,15.36,0,1,1,15.23,0,15.36,15.36,0,0,1,30.72,15.43ZM13.77,8.15a27.39,27.39,0,0,0-7.9.94,1.43,1.43,0,1,0,.8,2.75,17.78,17.78,0,0,1,3.52-.67c5-.41,9.84,0,14.33,2.5a1.38,1.38,0,0,0,1.91-.57,1.42,1.42,0,0,0-.54-1.93,13,13,0,0,0-1.57-.82A26.78,26.78,0,0,0,13.77,8.15Zm9.44,10.43a1.21,1.21,0,0,0,1.19-.83A1.13,1.13,0,0,0,24,16.43a11.32,11.32,0,0,0-1.22-.7,21.87,21.87,0,0,0-9.49-2.27,20.6,20.6,0,0,0-6.49.83,1.18,1.18,0,0,0-1,1.23c0,.83.78,1.28,1.69,1.05a19.88,19.88,0,0,1,15.1,1.8A1.42,1.42,0,0,0,23.21,18.58ZM13,18.48a25.21,25.21,0,0,0-5.68.68A1,1,0,1,0,7.65,21a30.09,30.09,0,0,1,3.27-.53,18.24,18.24,0,0,1,6.33.41A14.83,14.83,0,0,1,21,22.48a1,1,0,0,0,1.5-.71,1,1,0,0,0-.57-.95A17.11,17.11,0,0,0,13,18.48Z"/></g></g></svg>