<svg xmlns="http://www.w3.org/2000/svg" viewBox="0 0 22.87 25.88"><defs><style>.cls-1{fill:#fefefe;}.cls-2{fill:#fd2c55;}.cls-3{fill:#25f3ed;}.cls-4{fill:#fa2d55;}.cls-5{fill:#fe2f5b;}.cls-6{fill:#27f2ec;}.cls-7{fill:#fe2f5a;}.cls-8{fill:#fd214c;}.cls-9{fill:#fd254f;}.cls-10{fill:#28fefd;}.cls-11{fill:#1efef8;}.cls-12{fill:#27fdf8;}.cls-13{fill:#27fefb;}.cls-14{fill:#1df3ec;}.cls-15{fill:#fd2751;}.cls-16{fill:#26f7f1;}</style></defs><g id="Capa_2" data-name="Capa 2"><g id="nav"><path class="cls-1" d="M18.17,4.8l.7.56a11.67,11.67,0,0,0,2.7,1.49l.05.05a2,2,0,0,1,.12,1q0,.76,0,1.53c0,.76-.14.91-.9.86a9.87,9.87,0,0,1-4.27-1.25,1.77,1.77,0,0,0-.63-.31c-.16.17-.09.38-.09.56,0,2.6,0,5.19,0,7.79A8.07,8.07,0,0,1,9,24.86a8.62,8.62,0,0,1-3.78-.35,5.51,5.51,0,0,1-1.63-.93l-.57-.48c-.14-.19-.36-.32-.48-.53A6.43,6.43,0,0,1,1.15,19a7.8,7.8,0,0,1,1.76-6,8,8,0,0,1,5.53-2.9.53.53,0,0,1,.45.11l.06.05a.51.51,0,0,1,.16.42c0,.91.06,1.81,0,2.71-.15.34-.44.27-.71.24a3.4,3.4,0,0,0-2.81,5.88L6.1,20l.22.19a9.58,9.58,0,0,0,1.63,1,3.36,3.36,0,0,0,4.5-3V2a1.62,1.62,0,0,1,.12-.92.75.75,0,0,1,.54-.18c.72,0,1.44,0,2.17,0a.7.7,0,0,1,.48.16.1.1,0,0,1,.06.05.93.93,0,0,1,.24.46A7,7,0,0,0,18.17,4.8Z"/><path class="cls-2" d="M3.63,23.58a8.39,8.39,0,0,0,5.14,1.14,7.81,7.81,0,0,0,6.89-7.34c.08-2.77,0-5.54,0-8.31V8.38c.51.29,1,.55,1.39.77a10,10,0,0,0,4.08,1c.33,0,.44-.07.44-.41,0-1,0-1.93,0-2.89a.05.05,0,0,1,.08,0c.13,1,0,2,.06,2.9A27.78,27.78,0,0,1,21.83,7c.31,0,.65,0,1,.13,0,1.15,0,2.31,0,3.46a1,1,0,0,1-.12.68,9.47,9.47,0,0,1-5.22-1.5c-.16-.1-.3-.26-.51-.26-.11.18,0,.38-.05.57,0,2.55,0,5.1,0,7.64,0,.33-.15.66,0,1a7.6,7.6,0,0,1-4.8,6.59,7.64,7.64,0,0,1-8.2-1.41A2,2,0,0,1,3.63,23.58Z"/><path class="cls-3" d="M12.6,18.43a3.49,3.49,0,0,1-2.58,3,3.42,3.42,0,0,1-3.7-1.26,3.7,3.7,0,0,0,3.49-.28,3.9,3.9,0,0,0,1.6-2.45,11.4,11.4,0,0,0,0-2.8c0-4.74,0-9.48,0-14.22,0-.33.09-.44.43-.43,1.08,0,2.17,0,3.25,0,.49,0,.66.13.63.6a3.57,3.57,0,0,0,0,.47l-3.09,0c-.19.07-.11.23-.11.35q0,8.35,0,16.69A.58.58,0,0,0,12.6,18.43Z"/><path class="cls-3" d="M8.89,10.16A7.89,7.89,0,0,0,2.68,22.58a.19.19,0,0,1-.1.12c-4-3.34-3.23-10,1.47-12.62A6.2,6.2,0,0,1,6.6,9.24c.11.1.26,0,.39.07-.06-.05-.16,0-.2-.1A5.51,5.51,0,0,1,8.6,9.14c.26,0,.34.14.32.38S8.9,9.94,8.89,10.16Z"/><path class="cls-2" d="M6.1,20a3.49,3.49,0,0,1-1.64-4.16A3.59,3.59,0,0,1,8.3,13.4l.63.08A14.32,14.32,0,0,0,9,10.86c0-.63,0-.63.64-.61.18.09.44.08.43.4,0,1.3.07,2.6-.06,3.9a3.61,3.61,0,0,0-3.5,1C5.35,16.77,5.23,18.25,6.1,20Z"/><path class="cls-4" d="M18.17,4.8a5.42,5.42,0,0,1-2.35-3.68c.12,0,.24,0,.35,0,.6-.11.8.13.82.74A6.12,6.12,0,0,0,18.17,4.8Z"/><path class="cls-5" d="M16.86,18.67c-.18-.15-.11-.36-.11-.55q0-4,0-8.06c0-.2-.1-.45.16-.58C16.93,12.54,17,15.61,16.86,18.67Z"/><path class="cls-6" d="M21.57,6.85a4.41,4.41,0,0,1-2.7-1.49l1.9.56a.17.17,0,0,1-.2,0,.22.22,0,0,0,.14,0c.1,0,.2,0,.28,0C21.62,5.93,21.62,5.93,21.57,6.85Z"/><path class="cls-7" d="M22.64,11.24c0-1.18,0-2.36,0-3.55,0-.2-.08-.43.13-.59a38.14,38.14,0,0,1,.07,4C22.85,11.22,22.75,11.25,22.64,11.24Z"/><path class="cls-5" d="M10,14.55c0-1.2,0-2.41,0-3.61a.59.59,0,0,0-.36-.63c.08-.1.18-.07.28,0s.2.07.2.21v3.94C10.15,14.5,10.13,14.6,10,14.55Z"/><path class="cls-8" d="M10,10.28l-.28,0c-.47-.09-.63.09-.61.56,0,.69,0,1.38,0,2.07,0,.18.07.4-.14.54,0-1.09,0-2.18,0-3.27A2,2,0,0,1,10,10.28Z"/><path class="cls-9" d="M21.83,7v3.08H21.7V6.92Z"/><path class="cls-10" d="M11.44,14.66a10.72,10.72,0,0,1,.07,2.83.08.08,0,0,1,0,0s0,0-.05,0Z"/><path class="cls-11" d="M2.58,22.7l.1-.12a1.49,1.49,0,0,1,.38.52A1.24,1.24,0,0,1,2.58,22.7Z"/><path class="cls-12" d="M21,5.94c-.14.17-.31.09-.49,0l.27,0Z"/><path class="cls-13" d="M6.79,9.21l.37.07c-.26.08-.42.12-.56,0Z"/><path class="cls-14" d="M12.6,18.43c-.17-.18-.1-.41-.1-.62,0-5.36,0-10.72,0-16.08,0-.22-.12-.48.17-.63,0,.23,0,.47,0,.7V17.61C12.64,17.88,12.61,18.16,12.6,18.43Z"/><path class="cls-15" d="M15.82,17V8.92h.06V17Z"/><path class="cls-16" d="M15.52.3H11.7V.23h3.84Z"/></g></g></svg>